<svg width="24" height="24" viewBox="0 0 24 24" fill="none" xmlns="http://www.w3.org/2000/svg">
<path d="M5.9998 20.0002H10.3998C10.718 19.9998 11.023 19.8733 11.2479 19.6483C11.4729 19.4233 11.5994 19.1183 11.5998 18.8002V8.4002C11.5994 8.08205 11.4729 7.77704 11.2479 7.55208C11.023 7.32711 10.718 7.20057 10.3998 7.2002H5.9998C5.68166 7.20057 5.37665 7.32711 5.15169 7.55208C4.92672 7.77704 4.80018 8.08205 4.7998 8.4002V18.8002C4.80018 19.1183 4.92672 19.4233 5.15169 19.6483C5.37665 19.8733 5.68166 19.9998 5.9998 20.0002ZM6.3998 8.8002H9.9998V18.4002H6.3998V8.8002Z" fill="#181725"/>
<path d="M20.3998 0H15.9998C15.6817 0.000370522 15.3766 0.126918 15.1517 0.351881C14.9267 0.576845 14.8002 0.881854 14.7998 1.2V18.8C14.8002 19.1181 14.9267 19.4232 15.1517 19.6481C15.3766 19.8731 15.6817 19.9996 15.9998 20H20.3998C20.718 19.9996 21.023 19.8731 21.2479 19.6481C21.4729 19.4232 21.5994 19.1181 21.5998 18.8V1.2C21.5994 0.881854 21.4729 0.576845 21.2479 0.351881C21.023 0.126918 20.718 0.000370522 20.3998 0ZM19.9998 18.4H16.3998V1.6H19.9998V18.4Z" fill="#181725"/>
<path d="M1.6 0H0V24H24V22.4H1.6V0Z" fill="#181725"/>
</svg>
