<svg width="24" height="24" viewBox="0 0 24 24" fill="none" xmlns="http://www.w3.org/2000/svg">
<path d="M8.31637 8.88854C8.94119 9.44852 9.76879 9.78923 10.6742 9.78923H13.032C13.9022 9.79043 14.7421 9.4696 15.3899 8.88854H8.31637ZM8.31637 8.88854C7.6686 9.4696 6.82874 9.79043 5.95854 9.78923L8.31637 8.88854ZM7.18746 2.71574V2.66574H7.13745H3.60071C3.27478 2.66574 2.9622 2.79521 2.73174 3.02568C2.50127 3.25615 2.3718 3.56873 2.3718 3.89465V6.25248C2.3718 6.57841 2.50127 6.89099 2.73174 7.12146C2.9622 7.35192 3.27478 7.4814 3.60071 7.4814H5.95854C6.28447 7.4814 6.59705 7.35192 6.82751 7.12146C7.05798 6.89099 7.18746 6.57841 7.18746 6.25248V2.71574ZM3.6125 9.73923H3.5625V9.78923V21.5371V21.5871H3.6125H5.95854H6.00854V21.5371V15.6838C6.00854 15.0717 6.25169 14.4847 6.68449 14.0519C7.11729 13.6191 7.7043 13.376 8.31637 13.376H10.6742C11.2863 13.376 11.8733 13.6191 12.3061 14.0519C12.7389 14.4847 12.982 15.0717 12.982 15.6838V21.5371V21.5871H13.032H20.1208H20.1708V21.5371V9.78923V9.73923H20.1208H17.7477C16.855 9.73923 16.0392 9.40337 15.4232 8.8513L15.3898 8.82138L15.3565 8.85132C14.7179 9.42413 13.8899 9.74041 13.0321 9.73923H13.032H10.6742C9.78155 9.73923 8.96573 9.40337 8.34974 8.8513L8.31635 8.82138L8.28298 8.85132C7.6444 9.42413 6.81646 9.74041 5.95861 9.73923H5.95854H3.6125ZM1.2528 8.83149C0.899484 8.51035 0.61593 8.11979 0.419975 7.68403C0.217591 7.23398 0.11328 6.74602 0.113968 6.25255V6.25248V3.89465C0.113968 2.96991 0.481321 2.08304 1.13521 1.42915C1.7891 0.775262 2.67597 0.40791 3.60071 0.40791H20.1055C21.0303 0.40791 21.9171 0.775262 22.571 1.42915C23.2249 2.08304 23.5923 2.96991 23.5923 3.89465V6.25248C23.5923 7.27762 23.1507 8.20037 22.4451 8.83848L22.4287 8.85337V8.87557V21.5371C22.4287 22.1492 22.1855 22.7362 21.7527 23.169C21.3199 23.6018 20.7329 23.8449 20.1208 23.8449H11.1139V23.8441L11.1046 23.8458C10.9627 23.8726 10.8186 23.8862 10.6742 23.8862H8.31637C8.17195 23.8862 8.02784 23.8726 7.88592 23.8458L7.88609 23.8449H7.87663H3.61368C3.00161 23.8449 2.4146 23.6018 1.9818 23.169C1.549 22.7362 1.30585 22.1492 1.30585 21.5371V8.89915V8.77845L1.2528 8.83149ZM10.7242 15.6838V15.6338H10.6742H8.31637H8.26637V15.6838V21.5371V21.5871H8.31637H10.6742V21.5383H10.7242V21.5371V21.4871V15.6838ZM14.2609 2.71574V2.66574H14.2109H9.49528H9.44528V2.71574V6.25248C9.44528 6.57841 9.57476 6.89099 9.80522 7.12146C10.0357 7.35192 10.3483 7.4814 10.6742 7.4814H13.032C13.358 7.4814 13.6705 7.35192 13.901 7.12146C14.1315 6.89099 14.2609 6.57841 14.2609 6.25248V2.71574ZM16.5688 2.66574H16.5188V2.71574V6.25248C16.5188 6.57841 16.6482 6.89099 16.8787 7.12146C17.1092 7.35192 17.4218 7.4814 17.7477 7.4814H20.1055C20.4314 7.4814 20.744 7.35192 20.9745 7.12146C21.205 6.89099 21.3344 6.57841 21.3344 6.25248V3.89465C21.3344 3.56873 21.205 3.25615 20.9745 3.02568C20.744 2.79521 20.4314 2.66574 20.1055 2.66574H16.5688ZM16.5688 13.376H17.7477C18.0471 13.376 18.3342 13.4949 18.5459 13.7066C18.7577 13.9183 18.8766 14.2055 18.8766 14.5049V18.0416C18.8766 18.341 18.7577 18.6282 18.5459 18.8399C18.3342 19.0516 18.0471 19.1705 17.7477 19.1705H16.5688C16.2694 19.1705 15.9822 19.0516 15.7705 18.8399C15.5588 18.6282 15.4399 18.341 15.4399 18.0416V14.5049C15.4399 14.2055 15.5588 13.9183 15.7705 13.7066C15.9822 13.4949 16.2694 13.376 16.5688 13.376Z" fill="#53B175" stroke="white" stroke-width="0.1"/>
</svg>
