<svg width="18" height="20" viewBox="0 0 18 20" fill="none" xmlns="http://www.w3.org/2000/svg">
<path d="M5.02994 10.07C5.17077 10.0175 5.32221 9.99026 5.47532 9.98978C5.62843 9.9893 5.7801 10.0156 5.92136 10.0672C6.06261 10.1188 6.1906 10.1945 6.29774 10.29C6.40488 10.3855 6.48901 10.4988 6.54514 10.6231C6.60128 10.7475 6.62829 10.8804 6.62457 11.014C6.62086 11.1477 6.58649 11.2793 6.52351 11.4011C6.46052 11.523 6.3702 11.6325 6.25788 11.7234C6.14555 11.8142 6.01351 11.8845 5.86955 11.93C5.10387 12.1934 4.44671 12.6519 3.98358 13.2458C3.52045 13.8397 3.27279 14.5415 3.27282 15.26V17C3.27282 17.2652 3.39351 17.5196 3.60832 17.7071C3.82313 17.8946 4.11448 18 4.41827 18H13.5818C13.8856 18 14.177 17.8946 14.3918 17.7071C14.6066 17.5196 14.7273 17.2652 14.7273 17V15.353C14.7274 14.6115 14.4694 13.8874 13.9874 13.2768C13.5055 12.6662 12.8224 12.1979 12.0286 11.934C11.8838 11.8901 11.7505 11.8213 11.6367 11.7316C11.5228 11.6419 11.4308 11.5332 11.366 11.4119C11.3012 11.2905 11.265 11.1591 11.2594 11.0253C11.2539 10.8916 11.2792 10.7582 11.3338 10.6331C11.3884 10.508 11.4712 10.3938 11.5773 10.2972C11.6835 10.2006 11.8107 10.1235 11.9516 10.0706C12.0924 10.0177 12.244 9.99008 12.3973 9.98929C12.5507 9.98849 12.7026 10.0146 12.8442 10.066C14.0716 10.4742 15.1281 11.1983 15.8735 12.1425C16.6189 13.0867 17.0181 14.2063 17.0182 15.353V17C17.0182 17.7956 16.6561 18.5587 16.0117 19.1213C15.3673 19.6839 14.4932 20 13.5818 20H4.41827C3.5069 20 2.63285 19.6839 1.98841 19.1213C1.34398 18.5587 0.981934 17.7956 0.981934 17L0.981934 15.26C0.982091 14.1402 1.36827 13.0463 2.09022 12.1206C2.81218 11.195 3.8365 10.4805 5.02994 10.07ZM9.00005 0C10.2152 0 11.3806 0.421427 12.2399 1.17157C13.0991 1.92172 13.5818 2.93913 13.5818 4V6C13.5818 7.06087 13.0991 8.07828 12.2399 8.82843C11.3806 9.57857 10.2152 10 9.00005 10C7.78489 10 6.61949 9.57857 5.76024 8.82843C4.90099 8.07828 4.41827 7.06087 4.41827 6V4C4.41827 2.93913 4.90099 1.92172 5.76024 1.17157C6.61949 0.421427 7.78489 0 9.00005 0ZM9.00005 2C8.39247 2 7.80977 2.21071 7.38015 2.58579C6.95052 2.96086 6.70916 3.46957 6.70916 4V6C6.70916 6.53043 6.95052 7.03914 7.38015 7.41421C7.80977 7.78929 8.39247 8 9.00005 8C9.60763 8 10.1903 7.78929 10.62 7.41421C11.0496 7.03914 11.2909 6.53043 11.2909 6V4C11.2909 3.46957 11.0496 2.96086 10.62 2.58579C10.1903 2.21071 9.60763 2 9.00005 2Z" fill="#181725"/>
</svg>
