<svg width="31" height="31" viewBox="0 0 31 31" fill="none" xmlns="http://www.w3.org/2000/svg">
<path d="M12.2705 8.396V12.271H8.39551V8.396H12.2705ZM14.208 6.4585H6.45801V14.2085H14.208V6.4585ZM12.2705 18.7293V22.6043H8.39551V18.7293H12.2705ZM14.208 16.7918H6.45801V24.5418H14.208V16.7918ZM22.6038 8.396V12.271H18.7288V8.396H22.6038ZM24.5413 6.4585H16.7913V14.2085H24.5413V6.4585ZM16.7913 16.7918H18.7288V18.7293H16.7913V16.7918ZM18.7288 18.7293H20.6663V20.6668H18.7288V18.7293ZM20.6663 16.7918H22.6038V18.7293H20.6663V16.7918ZM16.7913 20.6668H18.7288V22.6043H16.7913V20.6668ZM18.7288 22.6043H20.6663V24.5418H18.7288V22.6043ZM20.6663 20.6668H22.6038V22.6043H20.6663V20.6668ZM22.6038 18.7293H24.5413V20.6668H22.6038V18.7293ZM22.6038 22.6043H24.5413V24.5418H22.6038V22.6043ZM27.1247 9.04183C26.4143 9.04183 25.833 8.46058 25.833 7.75016V5.16683H23.2497C22.5393 5.16683 21.958 4.58558 21.958 3.87516C21.958 3.16475 22.5393 2.5835 23.2497 2.5835H27.1247C27.8351 2.5835 28.4163 3.16475 28.4163 3.87516V7.75016C28.4163 8.46058 27.8351 9.04183 27.1247 9.04183ZM28.4163 27.1252V23.2502C28.4163 22.5397 27.8351 21.9585 27.1247 21.9585C26.4143 21.9585 25.833 22.5397 25.833 23.2502V25.8335H23.2497C22.5393 25.8335 21.958 26.4147 21.958 27.1252C21.958 27.8356 22.5393 28.4168 23.2497 28.4168H27.1247C27.8351 28.4168 28.4163 27.8356 28.4163 27.1252ZM3.87467 28.4168H7.74967C8.46009 28.4168 9.04134 27.8356 9.04134 27.1252C9.04134 26.4147 8.46009 25.8335 7.74967 25.8335H5.16634V23.2502C5.16634 22.5397 4.58509 21.9585 3.87467 21.9585C3.16426 21.9585 2.58301 22.5397 2.58301 23.2502V27.1252C2.58301 27.8356 3.16426 28.4168 3.87467 28.4168ZM2.58301 3.87516V7.75016C2.58301 8.46058 3.16426 9.04183 3.87467 9.04183C4.58509 9.04183 5.16634 8.46058 5.16634 7.75016V5.16683H7.74967C8.46009 5.16683 9.04134 4.58558 9.04134 3.87516C9.04134 3.16475 8.46009 2.5835 7.74967 2.5835H3.87467C3.16426 2.5835 2.58301 3.16475 2.58301 3.87516Z" fill="#181725"/>
</svg>
